<?xml version="1.0" encoding="utf-8"?>
<!-- Generator: Adobe Illustrator 24.3.0, SVG Export Plug-In . SVG Version: 6.00 Build 0)  -->
<svg version="1.1" id="Layer_1" xmlns="http://www.w3.org/2000/svg" xmlns:xlink="http://www.w3.org/1999/xlink" x="0px" y="0px"
	 viewBox="0 0 595.28 841.89" style="enable-background:new 0 0 595.28 841.89;" xml:space="preserve">
<style type="text/css">
	.st0{fill:none;stroke:#3C3C3B;}
	.st1{fill:#3C3C3B;}
</style>
<g>
	<path class="st0" d="M285.82,243.69 M285.82,417.84 M285.82,613.92 M285.82,231.28l121.26,0.58c28.11,0,52.19,10.14,72.23,30.4
		c20.03,20.26,30.05,43.5,30.05,69.71c0,15.38-4.22,30.4-12.65,45.08c-10.2,17.83-25.49,29.7-45.87,35.64
		c23.54,4.58,41.91,16.21,55.09,34.89c13.18,18.67,19.77,39.81,19.77,63.42c0,17.62-3.43,34-10.28,49.15
		c-6.85,15.16-17.13,28.02-30.84,38.58c-8.44,5.29-17.75,9.79-27.94,13.48c-10.2,3.7-20.56,6.42-31.1,8.19H285.82v-30.52"/>
</g>
<polygon class="st1" points="412.16,447.65 287.62,447.65 287.62,433.52 403.98,433.52 285.82,230.78 77.62,589.89 494.53,589.89 
	"/>
</svg>
